<?xml version="1.0" encoding="utf-8"?>
<!-- Generator: Adobe Illustrator 26.0.3, SVG Export Plug-In . SVG Version: 6.00 Build 0)  -->
<svg version="1.1" id="Capa_1" xmlns="http://www.w3.org/2000/svg" xmlns:xlink="http://www.w3.org/1999/xlink" x="0px" y="0px"
	 viewBox="0 0 1100 440" style="enable-background:new 0 0 1100 440;" xml:space="preserve">
<style type="text/css">
	.st0{fill:#333333;}
	.st1{fill:#102852;}
	.st2{fill:#1D4892;}
	.st3{fill:#4079D9;}
	.st4{fill:url(#SVGID_1_);}
	.st5{fill:url(#SVGID_00000014630479401098356630000008380887709945953463_);}
</style>
<g transform="matrix( 1, 0, 0, 1, 0,0) ">
	<g>
		<g id="Layer1_0_FILL">
			<path class="st0" d="M324.6,378.8v-2.8c0-5.7-1.4-10.3-4.3-13.7c-2.9-3.4-6.5-5.1-10.8-5.1c-4.7,0-8.6,1.6-11.7,4.8
				c-3.2,3.2-5.4,7-6.5,11.4c-1.2,4.3-1.8,9.1-2,14.4c0,0.8-0.1,3.5-0.2,7.9c-0.1,4.5-0.2,8-0.2,10.6c0,5.2,0.2,9.9,0.5,13.9
				c0.3,4.9,1.9,9.3,4.6,13.4c2.7,4.1,6.6,6.2,11.6,6.2h0.2c2.8,0,5.3-0.5,7.4-1.5c2.1-1,3.8-2.6,5.1-4.6c1.3-2,2.4-4,3.1-6.1
				c0.8-2,1.3-4.7,1.7-7.9c0.3-3.2,0.5-5.9,0.6-8.1c0.1-2.2,0.1-4.9,0.1-8.2c0-0.7-0.1-1.2-0.4-1.4c-0.2-0.2-0.8-0.3-1.7-0.4
				c-1-0.1-2.5-0.1-4.6-0.1c-0.5,0-0.9,0-1,0.1c-0.1,0.1-0.2,0.4-0.2,0.9c0,0.8,0,1.9,0.1,3.5c0,1.7,0.1,3,0.1,3.8
				c0,2.1-0.1,3.9-0.4,5.5c-0.2,1.6-0.7,3.1-1.2,4.6c-0.7,1.5-1.6,2.7-3,3.5c-1.4,0.8-3.1,1.1-5.1,1.1c-5,0-7.6-7-7.6-21v-16.9
				c0-8,0.3-13.3,0.9-16.1c1.3-2,4.1-3,8.3-3c0.8,0,1.5,0.2,2.1,0.6c0.5,0.4,1,1,1.4,1.9c0.3,0.9,0.6,1.7,0.8,2.5
				c0.2,0.8,0.4,1.9,0.5,3.4c0.1,1.4,0.2,2.6,0.2,3.4c0,0.9,0.1,2.2,0.1,3.8c0,1.6,0.1,2.6,0.1,3.1c0,1,0.1,1.7,0.2,2
				c0.1,0.3,0.6,0.4,1.4,0.4c0.2,0,2.4-0.1,6.6-0.4c0.1,0,0.5,0,1-0.1c0.5-0.1,0.8-0.1,0.8-0.1c0.1,0,0.3-0.1,0.6-0.2
				s0.4-0.2,0.5-0.3c0-0.2,0.1-0.4,0.1-0.7c0.1-0.3,0.1-0.6,0.1-1c0-0.8,0-2-0.1-3.7C324.6,380.7,324.6,379.5,324.6,378.8
				 M332.3,361.6c-1,0-1.6,0.2-1.8,0.5c-0.3,0.3-0.5,0.9-0.5,1.7V436c0,1.4,0.1,2.4,0.2,2.7c0.1,0.4,0.4,0.6,1,0.6
				c0.2,0,0.9-0.1,2-0.3l3.4-0.4c1.7-0.2,2.8-0.5,3.1-0.8c0.3-0.3,0.5-1.4,0.5-3.2v-70.3c0-1-0.2-1.7-0.6-2.1
				c-0.3-0.3-1.1-0.5-2.4-0.6L332.3,361.6 M372.5,360.4c-0.1-0.6-0.1-1-0.2-1.2c0-0.3-0.1-0.5-0.3-0.7c-0.1-0.2-0.3-0.3-0.5-0.4
				c-0.2,0-0.5-0.1-1-0.1h-13.6c-1,0-1.5,0.1-1.6,0.4c-0.1,0.2-0.3,1.1-0.6,2.7c-2.6,16.8-4.1,26.5-4.5,29.2c-0.2,1.7-0.6,4-1,7
				c-0.5,3-0.9,5.8-1.2,8.2c-0.3,2.5-0.7,4.9-1,7.1c-1.2,9.6-2.3,18.2-3.4,25.9c-0.1,0.2-0.1,0.5-0.1,0.8c0,0.4,0.3,0.6,0.8,0.6
				c1.2,0,3.1,0,5.5-0.1c2.5-0.1,3.7-0.2,3.8-0.2c0.3,0,0.5,0,0.7,0c0.2,0,0.3-0.1,0.3-0.2c0.1-0.1,0.2-0.3,0.2-0.4
				c0.1-0.1,0.1-0.3,0.1-0.6l3.1-22.8c0-0.3,0-0.6,0.1-0.7c0-0.1,0.1-0.3,0.3-0.4c0.1-0.1,0.3-0.2,0.5-0.2c0.1-0.1,0.3-0.1,0.7-0.1
				c1.9-0.2,4.6-0.5,8-0.9c0.1,0,0.3,0,0.5-0.1c0.1-0.1,0.3-0.1,0.4-0.1c0.3,0,0.5,0.3,0.5,1l1.9,20.4c0.1,0.8,0.2,1.2,0.3,1.3
				c0.1,0.1,0.5,0.2,1.2,0.2h7.3c0.7,0,1.1-0.1,1.1-0.4v-0.7L372.5,360.4 M363.2,369.3c0.4,0,0.6,0.5,0.8,1.5
				c0.3,3.3,0.4,8.2,0.6,14.7c0.1,6.5,0.2,11.4,0.5,14.7c0,0.2,0,0.3,0.1,0.5c0,0.1,0.1,0.3,0.1,0.4c0,0.3-0.4,0.5-1.2,0.5h-5.5
				c-0.7,0-1.1-0.2-1.1-0.5v-0.6l3.6-29.4c0.2-1.1,0.4-1.7,0.6-1.7L363.2,369.3 M434.6,360.4c-0.1-0.6-0.1-1-0.2-1.2
				c0-0.3-0.1-0.5-0.3-0.7c-0.1-0.2-0.3-0.3-0.5-0.4c-0.2,0-0.5-0.1-1-0.1H419c-1,0-1.5,0.1-1.6,0.4c-0.1,0.2-0.3,1.1-0.6,2.7
				c-2.7,16.8-4.2,26.5-4.5,29.2c-0.2,1.7-0.6,4-1,7c-0.5,3-0.9,5.8-1.2,8.2c-0.3,2.5-0.6,4.9-1,7.1c-1.2,9.6-2.3,18.2-3.4,25.9
				c-0.1,0.2-0.1,0.5-0.1,0.8c0,0.4,0.3,0.6,0.8,0.6c1.2,0,3.1,0,5.5-0.1c2.5-0.1,3.7-0.2,3.8-0.2c0.3,0,0.5,0,0.7,0
				c0.2,0,0.3-0.1,0.4-0.2c0.1-0.1,0.1-0.3,0.1-0.4c0.1-0.1,0.1-0.3,0.1-0.6l3.1-22.8c0-0.3,0-0.6,0.1-0.7c0-0.1,0.1-0.3,0.3-0.4
				c0.2-0.1,0.3-0.2,0.4-0.2c0.1-0.1,0.4-0.1,0.8-0.1c1.9-0.2,4.6-0.5,8-0.9c0.1,0,0.3,0,0.5-0.1c0.1-0.1,0.3-0.1,0.4-0.1
				c0.3,0,0.5,0.3,0.5,1l1.9,20.4c0.1,0.8,0.2,1.2,0.3,1.3c0.1,0.1,0.5,0.2,1.2,0.2h7.3c0.8,0,1.1-0.1,1.1-0.4v-0.7L434.6,360.4
				 M423.7,369.4l1.7-0.1c0.4,0,0.6,0.5,0.8,1.5c0.3,3.3,0.4,8.2,0.6,14.7c0.1,6.5,0.2,11.4,0.5,14.7c0,0.2,0,0.3,0.1,0.5
				c0,0.1,0.1,0.3,0.1,0.4c0,0.3-0.4,0.5-1.2,0.5h-5.4c-0.8,0-1.2-0.2-1.2-0.5v-0.6l3.6-29.4C423.3,370,423.5,369.4,423.7,369.4
				 M479.5,376.9v-0.1c0-5.4-0.8-9.7-2.5-12.7c-1.7-3-4.8-5.2-9.3-6.4c-3.7-0.9-7.8-1.4-12.2-1.4c-1.5,0-3.4,0.1-5.5,0.3
				c-1.7,0.2-2.7,0.4-2.9,0.7c-0.3,0.4-0.4,1.4-0.4,3v0.6c0.1,6.8,0.1,16.9,0.1,30.3v23.6c0,2.2,0,5.4-0.1,9.7c0,4.3,0,7.5,0,9.7
				v2.6c0,1,0.1,1.7,0.4,2c0.3,0.3,1,0.4,2.2,0.4c0.5,0,2-0.1,4.5-0.2c1.6-0.1,2.6-0.2,2.9-0.4c0.3-0.2,0.4-0.8,0.4-1.8v-1.6
				c-0.2-14.2-0.5-22.9-1-26.3l-0.4-2.4c-0.1-0.5-0.1-1.1-0.1-1.7c0-0.5,0.4-0.8,1.3-0.8c0.1,0,0.3,0,0.6,0c0.4,0,0.7,0.1,0.9,0.1
				c4.1,0.4,6.6,1.2,7.6,2.5c2.2,8.3,3.4,18.5,3.5,30.6c0,1.3,0.1,2.1,0.3,2.3c0.2,0.3,1,0.4,2.3,0.4h5.6c1,0,1.7-0.1,2-0.4
				c0.3-0.2,0.4-1,0.4-2.3V436c-0.6-11.5-1-17.7-1.2-18.6c-0.1-0.9-0.3-2-0.5-3.4c-0.1-1.4-0.3-2.5-0.4-3.2
				c-0.1-0.7-0.2-1.6-0.4-2.8c-0.2-1.1-0.6-2.1-1-3c-0.8-1.8-1.9-3.1-3.2-3.8c-4.7-2.2-7.5-3.3-8.6-3.3c0.1-0.1,1.7-0.7,4.7-1.8
				c3.1-1.2,5.4-2.6,6.8-4.1C478.5,389.8,479.5,384.8,479.5,376.9 M459,366.7c0.5-0.1,1.5-0.1,2.8-0.1c0.8,0,1.5,0,2,0.1
				c2.1,0.3,3.3,1.1,3.6,2.6c0.5,2.2,0.7,4.7,0.7,7.4c0,4-0.3,7.9-0.9,11.8c-1.6,1.8-4.3,2.7-8.1,2.7h-0.6c-1,0-1.5-0.4-1.5-1.2
				l0.1-21.5c0-0.7,0.1-1.2,0.3-1.4C457.5,366.9,458.1,366.7,459,366.7 M517.2,359c-0.3,0-0.7-0.1-1.4-0.2l-28.6-2
				c-2.1,0.2-3.3,1.1-3.5,2.8c-0.4,3.5-0.6,5.6-0.6,6.5c0,1.4,0.7,2.2,2.1,2.3l7.6,0.3c1.3,0,2,0.6,2,1.9v3.4
				c0.1,4.5,0.1,11.5,0.1,21.1v41.1c0,1.3,0.1,2.1,0.4,2.5c0.3,0.4,0.8,0.7,1.5,0.7c0.1,0,0.2,0,0.3-0.1c0.2,0,0.3-0.1,0.4-0.1
				l6.3-0.4c1.2-0.1,2-0.3,2.2-0.5c0.2-0.2,0.3-1.1,0.3-2.5v-35.6c0-4.1,0.1-9.9,0.2-17.4c0.1-7.5,0.2-12.1,0.2-13.8
				c0-0.8,0.1-1.2,0.4-1.4c0.2-0.2,0.7-0.3,1.3-0.3h6.5c0.1,0,0.5,0,1,0c0.4,0,0.8,0,0.9-0.1c0.1,0,0.4-0.1,0.6-0.2
				c0.2,0,0.4-0.1,0.5-0.4c0.1-0.2,0.2-0.5,0.3-0.9c0.1-0.4,0.1-0.8,0.1-1.2c0-0.8-0.1-2-0.2-3.7c0-0.6-0.1-1.1-0.4-1.4
				C517.8,359.3,517.5,359.1,517.2,359 M532.8,364.3c0-1-0.2-1.7-0.5-2.1c-0.3-0.3-1.2-0.5-2.5-0.6l-4.8-0.1c-0.9,0-1.5,0.2-1.8,0.5
				c-0.3,0.3-0.5,0.9-0.5,1.7V436c0,1.4,0.1,2.4,0.2,2.7c0.1,0.4,0.4,0.6,1,0.6c0.2,0,0.9-0.1,2-0.3l3.4-0.4
				c1.8-0.2,2.8-0.5,3.2-0.8c0.3-0.3,0.4-1.4,0.4-3.2V364.3 M565.7,360.4c-0.1-0.8-0.2-1.3-0.4-1.5c-0.2-0.2-0.5-0.3-1-0.3h-22.2
				c-1.5,0-2.5,0.1-2.9,0.3c-0.3,0.3-0.4,1.1-0.4,2.3v15.1c0,12.9-0.1,32.7-0.3,59.4v2.2c0,0.8,0.2,1.3,0.5,1.7
				c0.3,0.3,0.9,0.5,1.8,0.5l5-0.2c1.3-0.1,2-0.2,2.3-0.4c0.3-0.2,0.4-1,0.4-2.4c0-4.2,0-10.3,0-18.3c0.1-8.1,0.1-14.3,0.1-18.4
				c0-0.5,0.1-0.8,0.2-0.9c0.2-0.1,0.8-0.2,1.7-0.2c0.7,0,2.2-0.1,4.6-0.2c2.3-0.1,4.2-0.2,5.6-0.3c1,0,1.6-0.1,1.9-0.2
				c0.3-0.1,0.4-0.6,0.4-1.2l-0.3-7.6c0-0.8-0.1-1.4-0.3-1.6c-0.2-0.2-0.6-0.3-1.2-0.3h-0.6c-1,0-3.8-0.1-8.2-0.3
				c-1,0-1.6-0.1-1.8-0.2c-0.2-0.1-0.3-0.7-0.3-1.7l-0.2-10.8c0-1.7,0.9-2.6,2.6-2.6h2.4c1.5,0,3.1,0,4.8,0.1
				c1.7,0.1,3.3,0.1,4.6,0.1c0.5,0,0.8-0.1,1-0.3c0.1-0.1,0.2-0.5,0.2-1L565.7,360.4 M581.5,364.3c0-1-0.2-1.7-0.5-2.1
				c-0.4-0.3-1.2-0.5-2.5-0.6l-4.8-0.1c-0.9,0-1.5,0.2-1.8,0.5c-0.3,0.3-0.5,0.9-0.5,1.7V436c0,1.4,0.1,2.4,0.2,2.7
				c0.1,0.4,0.4,0.6,1,0.6c0.2,0,0.9-0.1,2-0.3l3.3-0.4c1.8-0.2,2.9-0.5,3.2-0.8c0.3-0.3,0.5-1.4,0.5-3.2V364.3 M608.1,368.3
				c0.6,0.4,1,1,1.4,1.9c0.4,0.9,0.7,1.7,0.9,2.5c0.3,0.8,0.4,1.9,0.5,3.4c0.1,1.4,0.2,2.6,0.2,3.4c0.1,0.9,0.1,2.2,0.1,3.8
				c0,1.6,0,2.6,0,3.1c0,1,0.1,1.7,0.2,2c0.2,0.3,0.6,0.4,1.4,0.4c0.2,0,2.4-0.1,6.7-0.4c0.1,0,0.4,0,0.9-0.1
				c0.5-0.1,0.8-0.1,0.9-0.1c0.1,0,0.2-0.1,0.5-0.2c0.3-0.1,0.4-0.2,0.4-0.3c0-0.2,0.1-0.4,0.2-0.7c0.1-0.3,0.1-0.6,0.1-1
				c0-0.8,0-2-0.1-3.7c0-1.7-0.1-2.9-0.1-3.7v-2.8c0-5.7-1.5-10.3-4.4-13.7c-2.9-3.4-6.5-5.1-10.8-5.1c-4.6,0-8.5,1.6-11.6,4.8
				c-3.2,3.2-5.3,7-6.5,11.4c-1.2,4.3-1.8,9.1-2,14.4c0,0.8-0.1,3.5-0.2,7.9c-0.1,4.5-0.2,8-0.2,10.6c0,5.2,0.1,9.9,0.4,13.9
				c0.4,4.9,1.9,9.3,4.7,13.4c2.7,4.1,6.6,6.2,11.6,6.2h0.2c2.8,0,5.3-0.5,7.4-1.5c2.1-1,3.8-2.6,5.1-4.6c1.3-2,2.3-4,3.2-6.1
				c0.8-2,1.3-4.7,1.7-7.9c0.3-3.2,0.5-5.9,0.6-8.1c0.1-2.2,0.1-4.9,0.1-8.2c0-0.7-0.1-1.2-0.4-1.4c-0.2-0.2-0.7-0.3-1.7-0.4
				c-1.1-0.1-2.6-0.1-4.6-0.1c-0.6,0-0.9,0-1,0.1c-0.1,0.1-0.2,0.4-0.2,0.9c0,0.8,0,1.9,0,3.5c0,1.7,0.1,3,0.1,3.8
				c0,2.1-0.1,3.9-0.3,5.5c-0.2,1.6-0.7,3.1-1.3,4.6c-0.7,1.5-1.7,2.7-3,3.5c-1.4,0.8-3,1.1-5,1.1c-5.1,0-7.6-7-7.6-21v-16.9
				c0-8,0.3-13.3,1-16.1c1.3-2,4.1-3,8.2-3C606.9,367.7,607.6,367.9,608.1,368.3 M10.1,364.3c0-1-0.2-1.7-0.5-2.1
				c-0.4-0.3-1.2-0.5-2.5-0.6l-4.8-0.1c-0.9,0-1.5,0.2-1.8,0.5c-0.3,0.3-0.5,0.9-0.5,1.7V436c0,1.4,0.1,2.4,0.2,2.7
				c0.1,0.4,0.4,0.6,1,0.6c0.2,0,0.9-0.1,2-0.3l3.4-0.4c1.7-0.2,2.8-0.5,3.1-0.8c0.3-0.3,0.5-1.4,0.5-3.2V364.3 M52,363.5v-2.3
				c0-1.5-0.2-2.4-0.5-2.8c-0.2-0.4-0.8-0.6-1.7-0.6l-4.7,0.2c-1.3,0.1-2.1,0.3-2.4,0.5c-0.3,0.2-0.4,0.9-0.4,2.2v0.6
				c0,4.9,0.1,12.3,0.2,22.2c0.1,9.9,0.2,17.4,0.2,22.4v2.8c0,2.1-0.1,3.1-0.3,3.1l-0.8-1.4c-1.6-4-3.2-9-4.8-15
				c-1.6-6-3.3-12.7-5.1-20c-1.8-7.4-2.8-11.9-3.2-13.4c-0.1-0.3-0.2-0.6-0.3-1c-0.1-0.4-0.1-0.7-0.2-0.8c0-0.1-0.1-0.2-0.1-0.4
				c-0.1-0.3-0.2-0.4-0.3-0.5c-0.1,0-0.3-0.1-0.4-0.3c-0.2-0.1-0.4-0.2-0.6-0.2c-0.2,0-0.4,0-0.8-0.1c-0.3,0-0.7-0.1-1.2-0.1h-5.6
				c-1.4,0-2.2,0.2-2.4,0.5c-0.3,0.3-0.5,0.9-0.5,1.8v76c0,1.2,0.2,2,0.6,2.4c0.5,0.3,1.5,0.5,3.1,0.5h2.9c2.4,0,3.8-0.2,4.2-0.6
				c0.5-0.4,0.7-1.8,0.8-4.2c0-0.4,0-1.1,0-1.9c0.1-0.8,0.1-1.5,0.1-1.9c0-3.6-0.1-8.9-0.2-16c-0.2-7-0.3-12.3-0.3-15.8
				c0-4.6,0.2-8.5,0.6-11.8c1.3,5.4,3.2,13.1,5.7,22.9c2.5,9.9,4.2,16.6,5.1,20.3c0.1,0.3,0.2,0.9,0.3,1.8c0.2,0.9,0.3,1.4,0.4,1.5
				c0.1,0.1,0.2,0.4,0.4,0.9c0.3,0.4,0.5,0.7,0.9,0.7c0.4,0.1,0.8,0.1,1.4,0.3c0.6,0.1,1.4,0.2,2.3,0.2h3.8c1.9,0,3.1-0.2,3.5-0.5
				c0.5-0.3,0.7-1.1,0.7-2.4l-0.1-21.4c-0.1-5.3-0.1-13.3-0.1-24.1C52.1,376.9,52.1,368.9,52,363.5 M91.2,359.6
				c-0.2-0.3-0.5-0.5-0.7-0.6c-0.3,0-0.7-0.1-1.3-0.2l-28.6-2c-2.1,0.2-3.3,1.1-3.5,2.8c-0.4,3.5-0.6,5.6-0.6,6.5
				c0,1.4,0.7,2.2,2.1,2.3l7.7,0.3c1.2,0,1.9,0.6,2,1.9v3.4c0.1,4.5,0.1,11.5,0.1,21.1v41.1c0,1.3,0.2,2.1,0.5,2.5
				c0.3,0.4,0.8,0.7,1.5,0.7c0.1,0,0.2,0,0.4-0.1c0.1,0,0.3-0.1,0.4-0.1l6.3-0.4c1.2-0.1,2-0.3,2.3-0.5c0.2-0.2,0.3-1.1,0.3-2.5
				v-35.6c0-4.1,0-9.9,0.1-17.4c0.1-7.5,0.2-12.1,0.2-13.8c0-0.8,0.1-1.2,0.4-1.4c0.2-0.2,0.7-0.3,1.3-0.3h6.5c0.1,0,0.5,0,1,0
				c0.4,0,0.7,0,0.9-0.1c0.1,0,0.4-0.1,0.7-0.2c0.2,0,0.4-0.1,0.5-0.4c0.1-0.2,0.2-0.5,0.3-0.9c0.1-0.4,0.1-0.8,0.1-1.2
				c0-0.8-0.1-2-0.2-3.7C91.6,360.4,91.5,360,91.2,359.6 M121.9,361.6c-0.1-1-0.2-1.5-0.3-1.7c-0.1-0.2-0.5-0.3-1.4-0.3L98,360.2
				c-1,0.1-1.6,0.2-1.8,0.3c-0.2,0.2-0.4,0.7-0.4,1.5v72.8c0,1.3,0.1,2.1,0.4,2.3c0.2,0.3,0.8,0.5,1.7,0.5l24.1,0.1
				c1.1,0,1.8-0.1,2-0.3c0.2-0.2,0.3-0.8,0.3-1.8v-8.8c0-0.6-0.1-0.9-0.3-1.1c-0.2-0.1-0.6-0.2-1.3-0.2l-13.1-0.1
				c-0.9,0-1.4-0.1-1.5-0.2c-0.1-0.2-0.2-0.7-0.2-1.6l-0.1-19.9c0-0.5,0.1-0.8,0.2-0.9c0.2-0.2,0.5-0.2,1-0.2l10.6-0.4
				c0.8-0.1,1.2-0.2,1.4-0.3c0.2-0.2,0.3-0.6,0.4-1.4l0.4-8.6c0-0.4-0.1-0.7-0.2-0.8c-0.2-0.1-0.7-0.1-1.5-0.1l-13-0.1
				c-0.7,0-1.1,0-1.2-0.1c-0.1-0.1-0.2-0.4-0.2-0.8l0.3-17.8c0-0.8,0.1-1.3,0.2-1.5c0.2-0.2,0.7-0.3,1.6-0.3h13.1
				c0.6,0,0.9-0.1,1-0.2c0.1-0.1,0.2-0.5,0.2-1.2C122.2,367.1,122.1,364.7,121.9,361.6 M140.7,362c0-1.4-0.2-2.3-0.5-2.6
				c-0.3-0.3-1.3-0.4-3-0.4h-5c-1.4,0-2.3,0.1-2.6,0.4c-0.3,0.2-0.4,0.8-0.4,1.8l0.1,74.2c0,1.6,0.1,2.7,0.4,3.1
				c0.3,0.5,1,0.7,2,0.7c0.1,0,5.8-0.1,17-0.4c0.2,0,0.5,0,0.9,0c0.5,0,0.7,0,0.8,0c0.1,0,0.3,0,0.6-0.1c0.3-0.1,0.5-0.1,0.6-0.2
				c0,0,0.1-0.1,0.3-0.2c0.1-0.1,0.2-0.2,0.2-0.3c0-0.1,0-0.3,0.1-0.5c0.1-0.3,0.1-0.5,0.1-0.8c0-0.3,0-0.6,0-1l0.1-5.9l-0.1-1.2
				c-0.2-0.4-0.8-0.7-1.9-0.9c-0.2,0-0.4,0-0.5,0l-7.5-0.7c-1.2,0-1.9-0.2-2.2-0.4c-0.2-0.3-0.4-0.9-0.4-1.9L140.7,362 M166.8,364.3
				c0-1-0.2-1.7-0.5-2.1c-0.4-0.3-1.2-0.5-2.5-0.6l-4.8-0.1c-0.9,0-1.5,0.2-1.8,0.5c-0.3,0.3-0.5,0.9-0.5,1.7V436
				c0,1.4,0.1,2.4,0.2,2.7c0.1,0.4,0.4,0.6,1,0.6c0.2,0,0.9-0.1,2-0.3l3.4-0.4c1.8-0.2,2.8-0.5,3.1-0.8c0.3-0.3,0.5-1.4,0.5-3.2
				V364.3 M202.1,363.3c-1.1-1.7-2.6-3.2-4.6-4.5c-1.9-1.3-4.2-1.9-6.8-1.9c-4.1,0-7.7,1.4-10.6,4.3c-3,2.9-5.1,6.8-6.4,11.6
				c-1.2,4.3-1.7,10.2-1.7,17.5c0,1.5,0,3.8,0.1,7c0.1,3.2,0.1,5.5,0.1,7c0,23.6,4.8,35.5,14.4,35.5c1.6,0,3.2-0.4,4.7-1.3
				c1.6-0.9,2.8-1.7,3.6-2.6c0.8-0.8,2-2.2,3.5-4.2c1.6-2,2.6-3.2,3-3.8v7.8c0,1.2,0.3,1.7,1,1.7l4.1-0.2c0.6-0.1,1-0.2,1.2-0.4
				c0.2-0.2,0.3-0.6,0.3-1.2v-0.6c0-1.8,0-4.5,0.1-8.1c0-3.7,0-6.4,0-8.3c0-5.7-0.1-11.5-0.3-17.2c-0.1-1.2-0.2-2-0.6-2.4
				c-0.3-0.3-0.9-0.4-1.8-0.4h-1.7c-2.1,0-6.6,0.4-13.4,1.1c-0.8,0.1-1.3,0.2-1.5,0.4c-0.2,0.2-0.2,0.7-0.2,1.3v5.9
				c0,0.9,0.1,1.5,0.2,1.7c0.1,0.2,0.6,0.4,1.3,0.6c3.4,0.7,5.4,1.6,6.3,2.7c-0.5,5.5-1,9-1.4,10.3c-1.1,3.4-2.7,5-4.8,5h-0.4
				c-1.4,0-2.6-0.8-3.7-2.4c-1.1-1.5-1.8-3.6-2.1-6c-1.4-7.9-2.1-16.1-2.1-24.6c0-4.8,0.2-10.3,0.6-16.5c0.2-4.1,1-7.1,2.3-9.1
				c1.3-1.9,3.4-2.9,6.2-2.9c0.8,0,1.5,0.3,2.1,1c0.7,0.7,1.2,1.7,1.5,3.1c0.4,1.3,0.7,2.6,1,4c0.3,1.3,0.4,2.9,0.6,4.9
				c0.1,2,0.2,3.6,0.2,4.8c0.1,1.2,0.1,2.6,0.1,4.5c0,1.1,0.3,1.6,0.8,1.6h1l7.1-0.6c1.1-0.1,1.6-0.8,1.6-2v-0.5
				c-0.2-3.5-0.4-6.4-0.7-8.8c-0.3-2.2-0.8-4.9-1.4-7.9C204.1,367.5,203.2,365.1,202.1,363.3 M239.5,359.8c-0.1-0.2-0.6-0.3-1.4-0.3
				l-22.2,0.7c-1,0.1-1.6,0.2-1.8,0.3c-0.2,0.2-0.3,0.7-0.3,1.5v72.8c0,1.3,0.1,2.1,0.3,2.3c0.2,0.3,0.8,0.5,1.7,0.5l24.1,0.1
				c1.1,0,1.8-0.1,2-0.3c0.2-0.2,0.3-0.8,0.3-1.8v-8.8c0-0.6-0.1-0.9-0.3-1.1c-0.2-0.1-0.6-0.2-1.4-0.2l-13-0.1
				c-0.8,0-1.3-0.1-1.5-0.2c-0.1-0.2-0.2-0.7-0.2-1.6l-0.1-19.9c0-0.5,0.1-0.8,0.2-0.9c0.1-0.2,0.5-0.2,1-0.2l10.6-0.4
				c0.8-0.1,1.3-0.2,1.4-0.3c0.1-0.2,0.3-0.6,0.4-1.4l0.4-8.6c0-0.4-0.1-0.7-0.2-0.8c-0.2-0.1-0.7-0.1-1.5-0.1l-13-0.1
				c-0.6,0-1.1,0-1.2-0.1c-0.1-0.1-0.2-0.4-0.2-0.8l0.4-17.8c0-0.8,0.1-1.3,0.2-1.5c0.1-0.2,0.7-0.3,1.6-0.3h13.1
				c0.6,0,1-0.1,1.1-0.2c0.1-0.1,0.2-0.5,0.2-1.2c0-1.8-0.1-4.2-0.2-7.3C239.7,360.6,239.6,360,239.5,359.8 M273.6,358.6
				c-0.3,0.2-0.4,0.9-0.4,2.2v0.6c0,4.9,0.1,12.3,0.2,22.2c0.1,9.9,0.2,17.4,0.2,22.4v2.8c0,2.1-0.1,3.1-0.3,3.1l-0.8-1.4
				c-1.6-4-3.2-9-4.8-15c-1.6-6-3.3-12.7-5.1-20c-1.7-7.4-2.8-11.9-3.2-13.4c-0.1-0.3-0.2-0.6-0.3-1c-0.1-0.4-0.1-0.7-0.1-0.8
				c-0.1-0.1-0.1-0.2-0.2-0.4c-0.1-0.3-0.2-0.4-0.3-0.5c-0.1,0-0.3-0.1-0.4-0.3c-0.2-0.1-0.4-0.2-0.6-0.2c-0.2,0-0.4,0-0.8-0.1
				c-0.3,0-0.8-0.1-1.2-0.1h-5.5c-1.4,0-2.2,0.2-2.4,0.5c-0.3,0.3-0.5,0.9-0.5,1.8v76c0,1.2,0.2,2,0.6,2.4c0.5,0.3,1.5,0.5,3.1,0.5
				h2.9c2.4,0,3.8-0.2,4.2-0.6c0.5-0.4,0.7-1.8,0.8-4.2c0-0.4,0-1.1,0-1.9c0.1-0.8,0.1-1.5,0.1-1.9c0-3.6-0.1-8.9-0.2-16
				c-0.2-7-0.3-12.3-0.3-15.8c0-4.6,0.2-8.5,0.5-11.8c1.3,5.4,3.2,13.1,5.7,22.9c2.5,9.9,4.2,16.6,5.1,20.3c0.1,0.3,0.1,0.9,0.3,1.8
				c0.1,0.9,0.3,1.4,0.4,1.5c0.1,0.1,0.3,0.4,0.5,0.9c0.2,0.4,0.5,0.7,0.8,0.7c0.4,0.1,0.9,0.1,1.5,0.3c0.6,0.1,1.4,0.2,2.3,0.2h3.8
				c2,0,3.2-0.2,3.6-0.5c0.4-0.3,0.6-1.1,0.6-2.4l-0.1-21.4c-0.1-5.3-0.1-13.3-0.1-24.1c0-10.8,0-18.9-0.1-24.2v-2.3
				c0-1.5-0.1-2.4-0.4-2.8c-0.3-0.4-0.8-0.6-1.8-0.6l-4.8,0.2C274.7,358.2,273.9,358.3,273.6,358.6 M1057.2,357.4
				c0-0.7-0.7-1.1-2.1-1.1c-2.8,0-5.4,0.1-7.8,0.4c-0.2,0-0.4,0-0.5,0c-0.1,0.1-0.3,0.2-0.4,0.4c-0.1,0.1-0.1,0.3-0.1,0.5
				c0,0.2,0,0.4-0.1,0.7c-0.1,0.4-0.2,0.8-0.2,1.2c-2.8,12.2-4.8,20.6-6.1,25c-0.6,1.8-1,2.7-1.1,2.7c-0.2,0-0.5-0.9-0.9-2.7
				l-5.5-25.1c-0.4-1.7-1.6-2.8-3.4-3.1l-4.7-0.3c-1.4,0-2.1,0.6-2.1,1.8c0,0.6,0,1,0.1,1.3c4.3,17.1,7.1,29.1,8.2,36
				c-0.4,3.9-1.9,11.1-4.6,21.4c-2.5,10.4-4.1,17.3-4.6,20.6c-0.1,0.6-0.2,1.1-0.2,1.3c0,0.4,0.4,0.6,1.2,0.6h7.5
				c0.3,0,0.5,0,0.7-0.1c0.3-0.1,0.6-0.7,0.8-1.8l6.5-33c0.1-1.1,0.3-1.7,0.5-1.7c0.2,0,0.4,0.6,0.6,1.7l6.4,33.1
				c0.3,1.8,1.2,2.6,2.7,2.6c0.9-0.1,2.3-0.2,4.2-0.5c1.9-0.2,3.5-0.4,4.8-0.6c0.5-0.1,0.7-0.7,0.7-1.8v-0.1l-9.3-42.3
				c1.7-6,4.5-17.8,8.4-35.2C1057.1,358.4,1057.2,357.8,1057.2,357.4 M1092.5,388.6l4,0.5c0.2,0,0.5,0,0.8,0c0.3,0,0.6,0,0.7,0
				c1,0,1.6-0.4,1.7-1.3c0.2-1.8,0.3-3.7,0.3-5.5c0-17.6-5.8-26.4-17.5-26.4c-4.7,0-8.7,1.3-11.9,3.8c-3.2,2.5-5.3,5.9-6.4,10.5
				c-0.8,3.6-1.2,6.8-1.2,9.5c0,9.3,3.7,16.7,11.2,22.2c1.2,0.8,3.3,2,6.5,3.7c5.4,2.8,8.1,8.7,8.1,17.9c0,2.9-0.6,4.6-1.9,5
				c-1.6,0.5-3.5,0.8-5.5,0.8c-1.1,0-2-0.3-2.9-1c-0.6-0.4-0.8-1.2-0.8-2.4v-13.9c0-1.1-0.1-1.8-0.2-2.1c-0.1-0.3-0.5-0.5-1.1-0.5
				c-0.6,0-1.2,0-1.7,0.1l-7,0.5c-1,0.1-1.5,0.2-1.8,0.4c-0.3,0.1-0.5,0.4-0.5,0.7c-0.1,0.3-0.2,1-0.2,2v2.5c0,6.6,1.3,12.3,3.8,17
				c2.4,4.7,6.2,7.1,11.2,7.1c5.6,0,9.8-1.8,12.7-5.3c2.8-3.5,4.2-8.5,4.2-14.9c0-5.9-0.8-10.7-2.5-14.5c-1.6-3.7-4.4-6.7-8.6-8.9
				c-0.4-0.2-1.3-0.7-2.7-1.4c-1.5-0.7-2.4-1.2-2.8-1.5c-0.4-0.2-1.1-0.7-2.1-1.5c-1-0.8-1.8-1.5-2.1-2.1c-0.4-0.5-0.8-1.3-1.4-2.2
				c-0.5-1-0.9-2.1-1.2-3.2c-0.2-1.2-0.3-2.5-0.3-3.9c0-3.4,0.7-6.6,2.1-9.7c1.3-3.1,3.4-4.6,6.1-4.6c5.1,0,7.7,6.3,8,19v0.7
				c0,1.2,0.1,1.9,0.2,2.1C1089.9,388.2,1090.8,388.4,1092.5,388.6 M638.1,364.3c0-1-0.2-1.7-0.5-2.1c-0.4-0.3-1.2-0.5-2.5-0.6
				l-4.8-0.1c-0.9,0-1.5,0.2-1.8,0.5c-0.3,0.3-0.5,0.9-0.5,1.7V436c0,1.4,0.1,2.4,0.2,2.7c0.1,0.4,0.4,0.6,1,0.6
				c0.3,0,0.9-0.1,2-0.3l3.4-0.4c1.8-0.2,2.8-0.5,3.1-0.8c0.3-0.3,0.5-1.4,0.5-3.2V364.3 M670,358.5c-0.2-0.2-0.4-0.3-0.5-0.4
				c-0.2,0-0.5-0.1-1-0.1h-13.6c-0.9,0-1.5,0.1-1.6,0.4c-0.2,0.2-0.4,1.1-0.6,2.7c-2.7,16.8-4.2,26.5-4.5,29.2c-0.3,1.7-0.6,4-1,7
				c-0.5,3-0.9,5.8-1.2,8.2c-0.3,2.5-0.7,4.9-1,7.1c-1.2,9.6-2.3,18.2-3.5,25.9c-0.1,0.2-0.1,0.5-0.1,0.8c0,0.4,0.3,0.6,0.8,0.6
				c1.2,0,3,0,5.5-0.1c2.4-0.1,3.7-0.2,3.7-0.2c0.3,0,0.5,0,0.7,0c0.2,0,0.3-0.1,0.4-0.2c0.1-0.1,0.1-0.3,0.2-0.4
				c0-0.1,0.1-0.3,0.1-0.6l3.1-22.8c0-0.3,0-0.6,0.1-0.7c0.1-0.1,0.2-0.3,0.3-0.4c0.1-0.1,0.3-0.2,0.4-0.2c0.1-0.1,0.3-0.1,0.7-0.1
				c2-0.2,4.7-0.5,8-0.9c0.2,0,0.4,0,0.5-0.1c0.2-0.1,0.3-0.1,0.4-0.1c0.3,0,0.5,0.3,0.5,1l1.9,20.4c0.1,0.8,0.2,1.2,0.3,1.3
				c0.1,0.1,0.5,0.2,1.2,0.2h7.2c0.8,0,1.1-0.1,1.1-0.4v-0.7l-8.1-74.6c-0.1-0.6-0.1-1-0.2-1.2C670.2,358.9,670.2,358.7,670,358.5
				 M659.6,369.4l1.6-0.1c0.4,0,0.6,0.5,0.8,1.5c0.2,3.3,0.4,8.2,0.5,14.7c0.1,6.5,0.2,11.4,0.5,14.7c0,0.2,0,0.3,0,0.5
				c0.1,0.1,0.1,0.3,0.1,0.4c0,0.3-0.4,0.5-1.2,0.5h-5.5c-0.8,0-1.2-0.2-1.2-0.5v-0.6l3.6-29.4C659.1,370,659.3,369.4,659.6,369.4
				 M693.9,362c0-1.4-0.2-2.3-0.5-2.6c-0.3-0.3-1.3-0.4-3-0.4h-5c-1.4,0-2.3,0.1-2.5,0.4c-0.3,0.2-0.5,0.8-0.5,1.8l0.1,74.2
				c0,1.6,0.1,2.7,0.4,3.1c0.3,0.5,1,0.7,2,0.7c0.2,0,5.8-0.1,17-0.4c0.2,0,0.5,0,0.9,0c0.5,0,0.8,0,0.8,0c0.1,0,0.3,0,0.6-0.1
				c0.3-0.1,0.5-0.1,0.6-0.2c0,0,0.1-0.1,0.3-0.2c0.1-0.1,0.2-0.2,0.2-0.3c0-0.1,0-0.3,0.1-0.5c0.1-0.3,0.1-0.5,0.1-0.8
				c0-0.3,0-0.6,0-1l0.1-5.9l-0.1-1.2c-0.2-0.4-0.8-0.7-2-0.9c-0.3,0-0.4,0-0.5,0l-7.5-0.7c-1.2,0-2-0.2-2.2-0.4
				c-0.3-0.3-0.4-0.9-0.4-1.9L693.9,362 M762.6,378c0-2.8-0.3-5.9-1-9.2c-0.5-3.2-2-5.8-4.3-7.8c-2.3-2-5.1-3.2-8.3-3.5
				c-4-0.3-9.1-0.5-15.4-0.5l-1.4,0.1c-0.4,0.1-0.6,0.8-0.6,2.1c0,0.5,0,0.8,0,1c-0.2,6.8-0.3,12.8-0.3,17.9
				c0,16.5,0.3,35.6,0.8,57.3c0.1,1.5,0.2,2.3,0.3,2.6c0.1,0.3,0.6,0.4,1.3,0.4h5.7c1.6,0,2.5-0.1,2.8-0.4c0.3-0.3,0.4-1.3,0.4-2.9
				l0.3-32.6c0-1,0.1-1.6,0.2-1.8c0.1-0.1,0.7-0.2,1.6-0.3c5.6-0.5,10-2.8,13.1-6.9C761.1,389.3,762.6,384.1,762.6,378 M742.2,365.5
				c3.8,0,6.5,0.8,8.1,2.4c1.7,1.6,2.5,4.5,2.5,8.9c0,3.1-0.9,5.9-2.8,8.5c-1.9,2.7-4.6,4-8.1,4c-0.5,0-0.8-0.6-0.8-1.8l-0.4-20.5
				c0-0.7,0.1-1.1,0.2-1.4C741.2,365.6,741.6,365.5,742.2,365.5 M793.9,360.4c-0.1-0.6-0.2-1-0.2-1.2c0-0.3-0.1-0.5-0.3-0.7
				c-0.2-0.2-0.3-0.3-0.5-0.4c-0.2,0-0.5-0.1-1-0.1h-13.6c-1,0-1.5,0.1-1.7,0.4c-0.2,0.2-0.4,1.1-0.5,2.7
				c-2.7,16.8-4.2,26.5-4.5,29.2c-0.2,1.7-0.6,4-1,7c-0.4,3-0.8,5.8-1.2,8.2c-0.3,2.5-0.7,4.9-1,7.1c-1.2,9.6-2.4,18.2-3.5,25.9
				c-0.1,0.2-0.1,0.5-0.1,0.8c0,0.4,0.3,0.6,0.8,0.6c1.2,0,3.1,0,5.6-0.1c2.4-0.1,3.7-0.2,3.7-0.2c0.3,0,0.6,0,0.7,0
				c0.2,0,0.3-0.1,0.4-0.2c0.1-0.1,0.2-0.3,0.2-0.4c0.1-0.1,0.1-0.3,0.1-0.6l3.1-22.8c0-0.3,0-0.6,0.1-0.7c0-0.1,0.1-0.3,0.3-0.4
				c0.1-0.1,0.3-0.2,0.4-0.2c0.1-0.1,0.4-0.1,0.7-0.1c1.9-0.2,4.6-0.5,8-0.9c0.2,0,0.3,0,0.5-0.1c0.1-0.1,0.3-0.1,0.4-0.1
				c0.3,0,0.5,0.3,0.6,1l1.9,20.4c0.1,0.8,0.2,1.2,0.3,1.3c0.1,0.1,0.5,0.2,1.2,0.2h7.2c0.8,0,1.2-0.1,1.2-0.4v-0.7L793.9,360.4
				 M784.6,369.3c0.4,0,0.6,0.5,0.8,1.5c0.3,3.3,0.4,8.2,0.5,14.7c0.1,6.5,0.2,11.4,0.5,14.7c0,0.2,0,0.3,0.1,0.5
				c0,0.1,0.1,0.3,0.1,0.4c0,0.3-0.4,0.5-1.2,0.5h-5.5c-0.8,0-1.1-0.2-1.1-0.5v-0.6l3.6-29.4c0.1-1.1,0.3-1.7,0.6-1.7L784.6,369.3
				 M838.9,376.9v-0.1c0-5.4-0.9-9.7-2.6-12.7c-1.7-3-4.7-5.2-9.2-6.4c-3.7-0.9-7.8-1.4-12.3-1.4c-1.5,0-3.3,0.1-5.4,0.3
				c-1.7,0.2-2.7,0.4-3,0.7c-0.3,0.4-0.4,1.4-0.4,3v0.6c0.1,6.8,0.1,16.9,0.1,30.3v23.6c0,2.2,0,5.4-0.1,9.7c0,4.3,0,7.5,0,9.7v2.6
				c0,1,0.1,1.7,0.4,2c0.3,0.3,1,0.4,2.2,0.4c0.5,0,1.9-0.1,4.5-0.2c1.6-0.1,2.6-0.2,3-0.4c0.3-0.2,0.5-0.8,0.5-1.8v-1.6
				c-0.2-14.2-0.5-22.9-1-26.3l-0.4-2.4c-0.1-0.5-0.1-1.1-0.1-1.7c0-0.5,0.4-0.8,1.2-0.8c0.1,0,0.3,0,0.6,0c0.4,0,0.7,0.1,0.9,0.1
				c4.1,0.4,6.6,1.2,7.6,2.5c2.2,8.3,3.4,18.5,3.5,30.6c0,1.3,0.1,2.1,0.4,2.3c0.2,0.3,1,0.4,2.4,0.4h5.6c1.1,0,1.7-0.1,2-0.4
				c0.3-0.2,0.4-1,0.4-2.3V436c-0.7-11.5-1.1-17.7-1.2-18.6c-0.1-0.9-0.3-2-0.5-3.4c-0.1-1.4-0.3-2.5-0.4-3.2
				c-0.1-0.7-0.2-1.6-0.4-2.8c-0.2-1.1-0.6-2.1-1-3c-0.8-1.8-1.8-3.1-3.2-3.8c-4.7-2.2-7.6-3.3-8.5-3.3c0.1-0.1,1.6-0.7,4.6-1.8
				c3.1-1.2,5.4-2.6,6.8-4.1C837.9,389.8,838.9,384.8,838.9,376.9 M821.1,366.5c0.8,0,1.5,0,2,0.1c2.1,0.3,3.3,1.1,3.6,2.6
				c0.5,2.2,0.7,4.7,0.7,7.4c0,4-0.3,7.9-0.9,11.8c-1.6,1.8-4.3,2.7-8.2,2.7h-0.6c-1,0-1.5-0.4-1.5-1.2l0.1-21.5
				c0-0.7,0.1-1.2,0.3-1.4c0.3-0.2,0.8-0.3,1.8-0.4C818.9,366.6,819.8,366.5,821.1,366.5 M869.9,358.1c-0.2,0-0.6-0.1-1.1-0.1h-13.6
				c-1,0-1.5,0.1-1.7,0.4c-0.2,0.2-0.4,1.1-0.6,2.7c-2.6,16.8-4.1,26.5-4.5,29.2c-0.2,1.7-0.6,4-1,7c-0.4,3-0.9,5.8-1.3,8.2
				c-0.3,2.5-0.6,4.9-1,7.1c-1.2,9.6-2.3,18.2-3.4,25.9c-0.1,0.2-0.1,0.5-0.1,0.8c0,0.4,0.3,0.6,0.8,0.6c1.3,0,3.1,0,5.6-0.1
				c2.4-0.1,3.7-0.2,3.7-0.2c0.3,0,0.6,0,0.7,0c0.1,0,0.3-0.1,0.4-0.2c0.1-0.1,0.1-0.3,0.2-0.4c0-0.1,0-0.3,0-0.6l3.2-22.8
				c0-0.3,0-0.6,0.1-0.7c0-0.1,0.1-0.3,0.3-0.4c0.1-0.1,0.3-0.2,0.4-0.2c0.1-0.1,0.3-0.1,0.7-0.1c1.9-0.2,4.6-0.5,8-0.9
				c0.2,0,0.3,0,0.5-0.1c0.2-0.1,0.3-0.1,0.4-0.1c0.3,0,0.5,0.3,0.6,1l1.9,20.4c0.1,0.8,0.2,1.2,0.3,1.3c0.1,0.1,0.5,0.2,1.2,0.2
				h7.3c0.8,0,1.1-0.1,1.1-0.4v-0.7l-8.1-74.6c-0.1-0.6-0.1-1-0.2-1.2c-0.1-0.3-0.2-0.5-0.3-0.7
				C870.3,358.3,870.1,358.2,869.9,358.1 M859.3,371.1c0.1-1.1,0.3-1.7,0.6-1.7l1.7-0.1c0.4,0,0.7,0.5,0.8,1.5
				c0.3,3.3,0.4,8.2,0.5,14.7c0.1,6.5,0.3,11.4,0.5,14.7c0,0.2,0,0.3,0,0.5c0,0.1,0.1,0.3,0.1,0.4c0,0.3-0.4,0.5-1.2,0.5H857
				c-0.8,0-1.2-0.2-1.2-0.5v-0.6L859.3,371.1 M933.8,359.6c-0.2-0.3-0.5-0.5-0.7-0.6c-0.3,0-0.8-0.1-1.4-0.2l-28.6-2
				c-2.1,0.2-3.3,1.1-3.5,2.8c-0.4,3.5-0.6,5.6-0.6,6.5c0,1.4,0.7,2.2,2.1,2.3l7.6,0.3c1.3,0,2,0.6,2.1,1.9v3.4
				c0.1,4.5,0.1,11.5,0.1,21.1v41.1c0,1.3,0.1,2.1,0.4,2.5c0.3,0.4,0.8,0.7,1.5,0.7c0.1,0,0.2,0,0.4-0.1c0.2,0,0.3-0.1,0.4-0.1
				l6.3-0.4c1.2-0.1,1.9-0.3,2.2-0.5c0.2-0.2,0.3-1.1,0.3-2.5v-35.6c0-4.1,0.1-9.9,0.2-17.4c0.1-7.5,0.2-12.1,0.2-13.8
				c0-0.8,0.1-1.2,0.3-1.4c0.2-0.2,0.7-0.3,1.3-0.3h6.5c0.2,0,0.5,0,1,0c0.4,0,0.7,0,0.9-0.1c0.2,0,0.5-0.1,0.7-0.2
				c0.2,0,0.4-0.1,0.5-0.4c0.1-0.2,0.2-0.5,0.3-0.9c0.1-0.4,0.1-0.8,0.1-1.2c0-0.8-0.1-2-0.3-3.7C934.1,360.4,934,360,933.8,359.6
				 M977.6,374.5c-0.9-2.6-2.1-5.1-3.5-7.5c-1.4-2.5-3.3-4.4-5.7-5.6c-2.4-1.3-5.1-1.9-8.2-1.9c-3.5,0-6.6,0.9-9.3,2.7
				c-2.8,1.8-5,4.2-6.5,7c-1.6,2.8-3,6.2-4.1,10.1c-1,3.9-1.8,7.7-2.2,11.4c-0.4,3.8-0.6,7.6-0.6,11.7c0,4.3,0.4,8.5,1.2,12.7
				c0.8,4.2,1.9,8.2,3.5,12c1.6,3.8,3.9,6.8,6.7,9.2c2.9,2.4,6.3,3.6,10.1,3.6c14.4,0,21.6-12.5,21.6-37.5c0-3.5-0.1-6.6-0.2-9.2
				c-0.1-2.6-0.4-5.7-0.8-9.4C979.2,380.2,978.5,377.1,977.6,374.5 M954.9,369.8c1.2-0.4,2.5-0.6,3.8-0.6c3.9,0,6.2,0.4,7,1.1
				c2.3,2.9,3.5,9.4,3.5,19.7v16.2c0,10.6-0.9,17.5-2.8,20.6c-0.6,1.1-1.8,1.7-3.8,1.7h-5.2c-2.8,0-4.5-0.6-5.1-1.7
				c-2-4.3-3-13.8-3-28.6c0-12.5,1.2-21.4,3.5-26.7C953.1,370.7,953.7,370.2,954.9,369.8 M986.7,357.2c-0.6,0-1.1,0.1-1.3,0.4v79.5
				c0,1.3,0.1,2.1,0.2,2.4c0.2,0.2,0.6,0.3,1.4,0.3h1.1c11.6-0.4,19.6-4,24.1-10.5c4.4-6.6,6.6-16.5,6.6-29.8v-4.8
				c0-6.1-0.1-10.8-0.3-14.2c-0.2-3.4-1-7.1-2.3-11.1c-1.3-4.1-3.3-7.1-6-9.1c-2.7-2-5.9-3.1-9.6-3.2H986.7 M996.8,365.4h0.9
				c1.5,0,2.9,0.4,4.2,1.1c1.2,0.7,2.3,1.5,3.1,2.5c0.8,1,1.5,2.4,2.1,4.2c0.6,1.8,1,3.5,1.2,5c0.3,1.5,0.5,3.5,0.7,5.9
				c0.2,2.4,0.3,4.5,0.3,6.1c0.1,1.6,0.1,3.7,0.1,6.4v1.9c0,1.6,0,3.7-0.1,6.3c0,2.6,0,4.4,0,5.4c0,5.5-0.8,9.8-2.5,12.9
				c-1.7,3.1-4.8,4.6-9.3,4.6h-1.1c-0.5,0-0.7-0.7-0.7-2v-3.6c0-5.6,0-14.1-0.1-25.4c0-11.4-0.1-19.9-0.1-25.5v-4.1
				c0-0.8,0-1.3,0.1-1.5C995.9,365.4,996.2,365.4,996.8,365.4z"/>
			<path class="st1" d="M43.4,12.4c0-4.8-0.8-7.9-2.3-9.3c-1.5-1.4-5.1-2.2-10.7-2.6L10,0C6,0,3.3,0.7,2,2.1C0.7,3.5,0,6.1,0,9.8
				v320.4c0,6.2,0.3,10.1,0.8,11.8c0.5,1.8,1.9,2.6,4.2,2.6c1,0,3.8-0.4,8.5-1.1l14.4-2.1c7.7-1,12.2-2.2,13.5-3.6
				c1.4-1.4,2-6,2-13.9V12.4 M104.1,1.5c-0.7,1-1.5,4.7-2.5,11.1c-0.2,1.3-0.4,2.6-0.6,3.9c-10.9,68.6-17.2,108.3-18.8,119
				c-1,7.1-2.4,17-4.3,29.7c-1.8,12.7-3.5,24.2-4.9,34.6c-1.5,10.4-2.9,20.3-4.3,29.6c-5,40.2-10,76.5-15,109
				c-0.3,0.9-0.5,2-0.5,3.3c0,1.6,1.2,2.4,3.5,2.4c5.3,0,13.2-0.2,23.7-0.7c10.4-0.5,15.9-0.7,16.2-0.7c1.4,0,2.4,0,3,0
				c0.7,0,1.2-0.3,1.5-0.8c0.3-0.5,0.5-0.9,0.7-1.4c0.2-0.5,0.2-1.4,0.2-2.7l13.5-95.9c0-1.3,0.1-2.2,0.2-2.9
				c0.2-0.6,0.6-1.2,1.3-1.7c0.6-0.5,1.2-0.8,1.7-0.9c0.5-0.2,1.6-0.3,3.2-0.3c8.3-0.6,19.8-1.9,34.4-3.8c0.7,0,1.4-0.1,2-0.3
				c0.7-0.1,1.2-0.2,1.5-0.2c1.3,0,2.1,1.4,2.5,4.3l4.5,44.4l3.5,41.4c0.3,3.2,0.8,5.1,1.3,5.6c0.5,0.5,2.2,0.7,5.2,0.7h30.9
				c3.3,0,5-0.6,5-1.9v-2.9L178,9.6c-0.4-2.6-0.6-4.3-0.8-5.3c-0.2-1-0.6-1.9-1.2-2.6c-0.7-0.8-1.4-1.3-2.3-1.4
				c-0.8-0.1-2.2-0.2-4.3-0.2h-58.4C107.1,0.1,104.8,0.5,104.1,1.5 M131.1,47.7l7-0.4c1.6,0,2.8,2.1,3.5,6.2
				c1,13.8,1.7,34.4,2.3,61.9c0.5,27.5,1.2,48.2,2.2,62c0,0.6,0.1,1.3,0.2,1.9c0.2,0.7,0.3,1.1,0.3,1.4c0,1.3-1.7,2-5,2h-23.5
				c-3.3,0-4.9-0.7-4.9-2v-2.4l15.4-123.9C129.2,50,130.1,47.7,131.1,47.7z"/>
			<path class="st2" d="M293.7,6.6c-0.5,1-0.7,2.7-0.7,5.1l2.5,146c0,3.3-0.4,5.5-1.2,6.5c-0.8,1-2.4,1.5-4.8,1.5
				c-0.3,0-1.1-0.1-2.3-0.2c-1.2-0.2-2.3-0.3-3.2-0.3l-29-1c-5.6-0.3-8.9-0.8-9.7-1.5c-0.8-0.6-1.2-3.8-1.2-9.5l4.5-128.9
				c0-2-0.4-3.3-1.2-4c-0.8-0.7-2.6-1-5.3-1h-20.5c-5.3,0-8,4.1-8,12.2l-5.5,167.7l0.5,1.6c0.3,1,1,1.9,2,2.8c1,0.8,2.1,1.3,3.4,1.3
				h36.9l39.9,1.5c4.7,0.3,7.4,0.9,8.2,1.5c0.9,0.7,1.3,3.1,1.3,7.1l1,121.2c0,3.4,0.5,5.6,1.5,6.8c1,1.2,3.7,1.8,8,1.8h26.5
				c3.3,0,5.4-0.5,6.2-1.5c0.8-1,1.2-3.7,1.2-8.1l-0.5-328c0-3-0.3-4.9-1-5.8c-0.7-0.8-2.3-1.3-5-1.3c-0.3,0-1,0.1-2,0.3
				c-0.9,0.1-1.8,0.2-2.5,0.2l-30.9,3c-3,0.3-5.2,0.7-6.5,1C295.1,5,294.2,5.6,293.7,6.6 M791.6,240.8c2.1-8.1,5.3-15.7,9.7-23
				c-2.1,2-4.3,4.1-6.5,6.3c-7.4,8-12.7,17.1-16,27.4c-2.6,8.8-3,17.6-1.3,26.3c1.7,8.4,5.1,16.1,10.1,23.2
				c4.6,6.7,10.1,12.2,16.5,16.4c8.3,5.5,17.4,8.9,27.3,10.3c12.5,1,24-1.4,34.6-7.3c8-4.2,14.9-9.9,20.6-17
				c-6.7,4.4-13.9,7.6-21.4,9.7c-8.2,2.1-16.5,2.5-24.9,1.2c-8.6-1.8-16.3-5.1-23.2-10c-6.5-4.6-12.2-9.9-17-16.1
				c-5.1-7.1-8.4-15-9.7-23.6C789.1,256.7,789.5,248.7,791.6,240.8 M801.2,45.9c-2.1,2-4.3,4.1-6.6,6.3c-7.4,8-12.7,17.2-16,27.4
				c-2.6,8.8-3,17.6-1.3,26.3c1.8,8.4,5.2,16.1,10.1,23.2c4.7,6.7,10.2,12.2,16.5,16.5c8.4,5.5,17.5,8.9,27.4,10.3
				c12.5,1,24-1.4,34.6-7.3c8-4.2,14.9-9.9,20.6-17c-6.7,4.4-13.9,7.6-21.4,9.7c-8.2,2.1-16.5,2.5-24.9,1.2
				c-8.6-1.8-16.3-5.1-23.2-10c-6.5-4.6-12.1-9.9-17-16.1c-5.1-7.1-8.4-15-9.8-23.6c-1.4-8.1-1-16.1,1.1-24
				C793.6,60.8,796.8,53.1,801.2,45.9z"/>
			<path class="st3" d="M406.2,1.7c-1.3-1.2-5.6-1.7-13-1.7h-21.4c-6,0-9.7,0.5-11,1.5c-1.3,1-1.9,3.7-1.9,8l0.4,318.7
				c0,7,0.7,11.4,2,13.4c1.3,2,4.1,3,8.5,3c0.6,0,24.9-0.5,72.8-1.5c0.6,0,2,0,4,0c2,0,3.1,0,3.4,0c0.4,0,1.2-0.2,2.5-0.5
				c1.3-0.4,2.1-0.6,2.3-0.8c0.2-0.2,0.6-0.5,1.2-1c0.7-0.5,1-1,1-1.5c0-0.5,0.2-1.2,0.5-2.3c0.3-1,0.4-2.1,0.4-3.2
				c0-1.2,0-2.6,0-4.2l0.5-24.9l-0.5-5c-0.6-2-3.5-3.3-8.5-4c-1,0-1.6,0-2,0l-31.9-3c-5.3-0.3-8.5-1-9.5-2c-1-1-1.5-3.7-1.5-8
				L408.2,13C408.2,6.7,407.5,2.9,406.2,1.7 M579,11.1c-0.3-4.4-0.8-7-1.2-7.8C577.3,2.4,575.3,2,572,2l-95.3,3
				c-4.3,0.3-7,0.8-8,1.5c-1,0.7-1.4,2.9-1.4,6.6V331c0,5.8,0.5,9.2,1.4,10.4c1,1.2,3.5,1.7,7.5,1.7l55.4,1l47.9-0.5
				c4.6,0,7.4-0.4,8.2-1.3c0.8-0.8,1.2-3.4,1.2-7.8V296c0-2.4-0.4-3.9-1.2-4.6c-0.8-0.7-2.7-1-5.7-1l-28.9-0.5h-26.9
				c-3.7,0-5.8-0.3-6.5-1c-0.6-0.7-1-3-1-7.1l-0.5-86.9c0-2,0.3-3.4,1-4.1c0.7-0.6,2.2-1,4.5-1l45.4-2.1c3.3-0.3,5.3-0.7,6-1.2
				c0.6-0.5,1.1-2.4,1.5-5.9l2-37.6c0-1.7-0.4-2.7-1.2-3.1c-0.8-0.3-2.9-0.4-6.2-0.4l-55.9-0.5c-2.7,0-4.3-0.3-5-0.8
				c-0.7-0.5-1-1.6-1-3.3l1.5-77.7c0-3.7,0.3-6,1-6.9c0.7-0.8,2.9-1.2,6.5-1.2h56.3c2.7,0,4.3-0.3,4.8-0.8c0.5-0.5,0.7-2.3,0.7-5.3
				c0-6.7-0.2-15.6-0.7-26.6C579.2,14.8,579.1,13,579,11.1 M709,16.5c-3.2-3.1-6.9-6-11-8.6c-8.3-5.2-18.1-7.8-29.5-7.8
				c-16.9,0-31.5,5.5-43.9,16.4c-0.5,0.5-1,0.9-1.5,1.4c-12.6,12-21.8,28.1-27.4,48.5c-5,17.8-7.5,42-7.5,72.6
				c0,6.3,0.1,16.1,0.4,29.1c0.4,13,0.5,22.7,0.5,29.1c0,98,20.6,147,61.8,147c7,0,13.8-1.8,20.4-5.5c6.7-3.6,11.7-7.2,15.2-10.7
				c3.5-3.5,8.6-9.3,15.2-17.5c6.7-8.1,11-13.2,13-15.5v32.4c0,4.8,1.3,7.2,4,7.2l17.5-1c2.7-0.3,4.4-0.8,5.2-1.6
				c0.8-0.8,1.2-2.3,1.2-4.5v-2.4c0-7.3,0.1-18.5,0.3-33.6c0.2-15.1,0.2-26.5,0.2-34.2c0-23.9-0.5-47.7-1.5-71.6
				c-0.3-5.1-1.2-8.3-2.5-9.6c-1.4-1.3-4-1.9-8-1.9h-7.5c-9,0-28.1,1.4-57.3,4.3c-3.4,0.3-5.4,0.9-6.3,1.6c-0.8,0.8-1.2,2.5-1.2,5
				v24.9c0,3.5,0.3,5.7,1,6.7c0.7,1,2.5,1.8,5.5,2.4c14.3,3.2,23.3,7,27,11.5c-2,22.9-4,37.2-6,42.9c-4.6,14-11.4,21-20.4,21h-1.5
				c-6-0.3-11.3-3.6-15.9-10c-4.7-6.4-7.7-14.8-9-25.3c-5.6-32.5-8.4-66.4-8.4-101.7c0-20.1,0.8-42.8,2.5-68.3
				c1-17.2,4.2-29.8,9.7-38c5.5-8.1,14.2-12.2,26.2-12.2c3.7,0,6.8,1.4,9.5,4.3c2.7,2.9,4.7,7.2,6.2,12.9c1.5,5.8,2.8,11.2,4,16.5
				c1.2,5.3,2,12.1,2.5,20.6c0.5,8.4,0.8,15,1,19.8c0.2,4.8,0.3,11,0.3,18.6c0,4.5,1.2,6.7,3.5,6.7h4l30.9-2.4c4.6-0.6,7-3.5,7-8.6
				v-1.9c-1-14.7-2.1-26.8-3.2-36.3c-1.2-9.6-3.3-20.6-6.2-33c-3-12.4-6.8-22.2-11.5-29.6C715,23.1,712.2,19.7,709,16.5 M933.1,14.4
				c0-3.9-1.4-7.2-4.1-10s-6.1-4.1-9.9-4.1h-144c-3.9,0-7.2,1.4-10,4.1s-4.1,6.1-4.1,10v316.1c0,3.8,1.4,7.1,4.1,9.9
				c2.8,2.8,6.1,4.2,10,4.2h144c3.9,0,7.2-1.4,9.9-4.2c2.8-2.8,4.1-6.1,4.1-9.9V14.4 M894.6,124.9c-0.8,0.8-1.5,1.4-2.1,2.1
				c9.8-11.3,14.6-24.5,14.6-39.7c0-16.9-6-31.4-18-43.5C877.2,31.9,862.8,26,846,26c-15.3,0-28.5,4.9-39.7,14.6
				c-0.8,0.8-1.5,1.4-2.3,2.1c1-1.1,2-2.3,3-3.4c1.5-1.5,3.1-2.8,4.7-4.1c11.1-9.7,24.3-14.6,39.5-14.6c16.9,0,31.3,5.9,43.5,17.8
				c11.9,12.1,17.8,26.6,17.8,43.5C912.4,98.7,906.5,113,894.6,124.9 M794.6,52.2c2.2-2.2,4.4-4.3,6.6-6.3c-4.4,7.2-7.6,14.9-9.7,23
				c-2.1,7.8-2.5,15.8-1.1,24c1.4,8.6,4.6,16.5,9.8,23.6c4.9,6.1,10.5,11.5,17,16.1c6.9,4.9,14.6,8.2,23.2,10
				c8.4,1.4,16.7,1,24.9-1.2c7.5-2.1,14.6-5.3,21.4-9.7c-5.7,7.1-12.6,12.8-20.6,17c-10.6,5.9-22.2,8.4-34.6,7.3
				c-9.9-1.4-19-4.8-27.4-10.3c-6.3-4.3-11.8-9.7-16.5-16.5c-5-7.1-8.3-14.9-10.1-23.2c-1.7-8.7-1.3-17.5,1.3-26.3
				C781.9,69.3,787.3,60.2,794.6,52.2 M804.2,214.6c1-1.1,2-2.3,3-3.4c1.5-1.5,3.1-2.8,4.7-4.1c11.1-9.7,24.3-14.6,39.5-14.6
				c16.9,0,31.3,5.9,43.4,17.8c11.9,12.1,17.8,26.6,17.8,43.4c0,16.9-5.9,31.2-17.8,43.1c-0.8,0.8-1.5,1.5-2.1,2.1
				c9.8-11.2,14.6-24.5,14.6-39.7c0-16.8-6-31.3-18-43.4c-12-11.9-26.4-17.8-43.2-17.8c-15.2,0-28.4,4.9-39.7,14.6
				C805.6,213.3,804.9,214,804.2,214.6 M801.3,217.9c-4.4,7.2-7.6,14.9-9.7,23c-2.2,7.9-2.5,15.9-1.2,24c1.4,8.6,4.6,16.5,9.7,23.6
				c4.9,6.1,10.5,11.5,17,16.1c6.9,4.9,14.6,8.2,23.2,10c8.4,1.3,16.7,0.9,24.9-1.2c7.5-2.1,14.6-5.3,21.4-9.7
				c-5.7,7.1-12.6,12.8-20.6,17c-10.6,5.9-22.2,8.3-34.6,7.3c-9.9-1.4-19-4.8-27.3-10.3c-6.4-4.2-11.9-9.7-16.5-16.4
				c-5-7.1-8.4-14.8-10.1-23.2c-1.7-8.7-1.3-17.5,1.3-26.3c3.3-10.3,8.6-19.4,16-27.4C797,221.9,799.2,219.8,801.3,217.9 M1072,16.5
				c-12-11-27.7-16.4-47.3-16.4c-20.3,0-37.3,5.1-50.9,15.3c-0.5,0.4-1,0.7-1.4,1.1c-12.8,10.1-21.5,24.2-26,42.1
				c-3.7,14.8-5.5,27.7-5.5,38.8c0,38.1,16.1,68.4,48.4,90.8c4.7,3.2,14,8.2,27.9,15.1c23.3,11.4,34.9,35.8,34.9,73.3
				c0,12-2.8,18.9-8.5,20.8c-7,2.2-14.8,3.3-23.5,3.3c-4.7,0-8.8-1.3-12.5-3.8c-2.3-1.6-3.5-4.9-3.5-9.9v-56.8c0-4.7-0.3-7.7-1-8.9
				c-0.7-1.3-2.4-1.9-5.1-1.9s-5,0.2-7,0.5l-29.9,2.4c-4,0.3-6.6,0.8-7.7,1.4c-1.2,0.6-1.9,1.6-2.3,2.9c-0.3,1.3-0.6,4.1-1,8.5v10.4
				c0,27.1,5.3,50.3,15.9,69.7c10.7,19.4,26.8,29.1,48.4,29.1c23.9,0,42-7.3,54.1-21.8c12.2-14.5,18.2-34.8,18.2-61
				c0-24.3-3.5-44.1-10.5-59.3c-7-15.3-19.3-27.5-36.9-36.6c-1.7-0.9-5.6-2.9-11.7-5.9c-6.2-3-10.1-5-11.7-6.1
				c-1.7-1.1-4.7-3.3-9.2-6.4c-4.5-3.2-7.6-5.9-9.2-8.2c-1.7-2.4-3.7-5.5-6-9.5c-2.3-3.9-3.9-8.3-4.7-13c-0.9-4.8-1.3-10.1-1.3-16.1
				c0-13.9,2.9-27.1,8.7-39.8c5.8-12.6,14.7-18.9,26.7-18.9c21.6,0,32.9,26,33.9,78v2.9c0,4.7,0.3,7.5,1,8.5
				c0.6,1.3,4.5,2.2,11.5,2.8l17.5,1.9c1,0,2.2,0.1,3.5,0.2c1.3,0.2,2.3,0.2,3,0.2c4.3,0,6.7-1.9,7-5.6c1-7.6,1.5-15,1.5-22.2
				C1100,64.3,1090.7,33.7,1072,16.5z"/>
			
				<radialGradient id="SVGID_1_" cx="-835.665" cy="755.195" r="84.1019" gradientTransform="matrix(1 0 0 -1 1673.7 957.1)" gradientUnits="userSpaceOnUse">
				<stop  offset="1.960784e-02" style="stop-color:#D7E2F7"/>
				<stop  offset="1" style="stop-color:#9DBBEB"/>
			</radialGradient>
			<path class="st4" d="M807.1,211.3c-1,1.1-2,2.2-3,3.4c0.7-0.6,1.5-1.3,2.3-2.1c11.2-9.8,24.4-14.6,39.7-14.6
				c16.9,0,31.3,5.9,43.2,17.8c12,12.1,18,26.6,18,43.4c0,15.2-4.9,28.4-14.6,39.7c0.6-0.6,1.3-1.3,2.1-2.1
				c11.9-11.8,17.8-26.2,17.8-43.1c0-16.8-5.9-31.3-17.8-43.4c-12.1-11.8-26.6-17.8-43.4-17.8c-15.2,0-28.4,4.9-39.5,14.6
				C810.2,208.4,808.7,209.8,807.1,211.3z"/>
			
				<radialGradient id="SVGID_00000148644453066521873650000017578715219667885954_" cx="-835.5525" cy="614.48" r="84.1363" gradientTransform="matrix(1 0 0 -1 1673.45 644.4)" gradientUnits="userSpaceOnUse">
				<stop  offset="1.960784e-02" style="stop-color:#D7E2F7"/>
				<stop  offset="1" style="stop-color:#9DBBEB"/>
			</radialGradient>
			<path style="fill:url(#SVGID_00000148644453066521873650000017578715219667885954_);" d="M892.6,127c0.6-0.6,1.3-1.3,2.1-2.1
				c11.9-11.9,17.8-26.2,17.8-43.1c0-16.9-5.9-31.3-17.8-43.5c-12.1-11.9-26.6-17.8-43.5-17.8c-15.3,0-28.4,4.9-39.5,14.6
				c-1.6,1.3-3.2,2.7-4.7,4.1c-1,1.1-2,2.3-3,3.4c0.8-0.6,1.5-1.3,2.3-2.1C817.5,30.9,830.7,26,846,26c16.9,0,31.3,5.9,43.2,17.8
				c12,12.1,18,26.6,18,43.5C907.2,102.5,902.3,115.7,892.6,127z"/>
		</g>
	</g>
</g>
</svg>
